HIERARCHY
ROOT Hips
{
	OFFSET 0.000000 0.000000 0.000000
	CHANNELS 6 Xposition Yposition Zposition Zrotation Yrotation Xrotation 
	JOINT LHipJoint
	{
		OFFSET 0.000000 0.000000 0.000000
		CHANNELS 3 Zrotation Yrotation Xrotation
		JOINT LeftUpLeg
		{
			OFFSET 1.363060 -1.794630 0.839290
			CHANNELS 3 Zrotation Yrotation Xrotation
			JOINT LeftLeg
			{
				OFFSET 2.448110 -6.726130 0.000000
				CHANNELS 3 Zrotation Yrotation Xrotation
				JOINT LeftFoot
				{
					OFFSET 2.562200 -7.039590 0.000000
					CHANNELS 3 Zrotation Yrotation Xrotation
					JOINT LeftToeBase
					{
						OFFSET 0.157640 -0.433110 2.322550
						CHANNELS 3 Zrotation Yrotation Xrotation
						End Site
						{
							OFFSET 0.000000 0.000000 0.000000
						}
					}
				}
			}
		}
	}
	JOINT RHipJoint
	{
		OFFSET 0.000000 0.000000 0.000000
		CHANNELS 3 Zrotation Yrotation Xrotation
		JOINT RightUpLeg
		{
			OFFSET -1.305520 -1.794630 0.839290
			CHANNELS 3 Zrotation Yrotation Xrotation
			JOINT RightLeg
			{
				OFFSET -2.542530 -6.985550 0.000000
				CHANNELS 3 Zrotation Yrotation Xrotation
				JOINT RightFoot
				{
					OFFSET -2.568260 -7.056230 0.000000
					CHANNELS 3 Zrotation Yrotation Xrotation
					JOINT RightToeBase
					{
						OFFSET -0.164730 -0.452590 2.363150
						CHANNELS 3 Zrotation Yrotation Xrotation
						End Site
						{
							OFFSET 0.000000 0.000000 0.000000
						}
					}
				}
			}
		}
	}
	JOINT LowerBack
	{
		OFFSET 0.000000 0.000000 0.000000
		CHANNELS 3 Zrotation Yrotation Xrotation
		JOINT Spine
		{
			OFFSET 0.028270 2.035590 -0.193380
			CHANNELS 3 Zrotation Yrotation Xrotation
			JOINT Spine1
			{
				OFFSET 0.056720 2.048850 -0.042750
				CHANNELS 3 Zrotation Yrotation Xrotation
				JOINT Neck
				{
					OFFSET 0.000000 0.000000 0.000000
					CHANNELS 3 Zrotation Yrotation Xrotation
					JOINT Neck1
					{
						OFFSET -0.054170 1.746240 0.172020
						CHANNELS 3 Zrotation Yrotation Xrotation
						JOINT Head
						{
							OFFSET 0.104070 1.761360 -0.123970
							CHANNELS 3 Zrotation Yrotation Xrotation
							End Site
							{
								OFFSET 0.000000 0.000000 0.000000
							}
						}
					}
				}
				JOINT LeftShoulder
				{
					OFFSET 0.000000 0.000000 0.000000
					CHANNELS 3 Zrotation Yrotation Xrotation
					JOINT LeftArm
					{
						OFFSET 3.362410 1.200890 -0.311210
						CHANNELS 3 Zrotation Yrotation Xrotation
						JOINT LeftForeArm
						{
							OFFSET 4.983000 -0.000000 -0.000000
							CHANNELS 3 Zrotation Yrotation Xrotation
							JOINT LeftHand
							{
								OFFSET 3.483560 -0.000000 -0.000000
								CHANNELS 3 Zrotation Yrotation Xrotation
								JOINT LeftFingerBase
								{
									OFFSET 0.000000 0.000000 0.000000
									CHANNELS 3 Zrotation Yrotation Xrotation
									JOINT LeftHandIndex1
									{
										OFFSET 0.715260 -0.000000 -0.000000
										CHANNELS 3 Zrotation Yrotation Xrotation
										End Site
										{
											OFFSET 0.000000 0.000000 0.000000
										}
									}
								}
								JOINT LThumb
								{
									OFFSET 0.000000 0.000000 0.000000
									CHANNELS 3 Zrotation Yrotation Xrotation
									End Site
									{
										OFFSET 0.000000 0.000000 0.000000
									}
								}
							}
						}
					}
				}
				JOINT RightShoulder
				{
					OFFSET 0.000000 0.000000 0.000000
					CHANNELS 3 Zrotation Yrotation Xrotation
					JOINT RightArm
					{
						OFFSET -3.136600 1.374050 -0.404650
						CHANNELS 3 Zrotation Yrotation Xrotation
						JOINT RightForeArm
						{
							OFFSET -5.241900 -0.000000 -0.000000
							CHANNELS 3 Zrotation Yrotation Xrotation
							JOINT RightHand
							{
								OFFSET -3.444170 -0.000000 -0.000000
								CHANNELS 3 Zrotation Yrotation Xrotation
								JOINT RightFingerBase
								{
									OFFSET 0.000000 0.000000 0.000000
									CHANNELS 3 Zrotation Yrotation Xrotation
									JOINT RightHandIndex1
									{
										OFFSET -0.622530 -0.000000 -0.000000
										CHANNELS 3 Zrotation Yrotation Xrotation
										End Site
										{
											OFFSET 0.000000 0.000000 0.000000
										}
									}
								}
								JOINT RThumb
								{
									OFFSET 0.000000 0.000000 0.000000
									CHANNELS 3 Zrotation Yrotation Xrotation
									End Site
									{
										OFFSET 0.000000 0.000000 0.000000
									}
								}
							}
						}
					}
				}
			}
		}
	}
}
MOTION
Frames: 10
Frame Time: 0.033333
-7.331271 16.754734 0.144944 -111.074617 88.160170 -95.131130 -14.011697 2.310306 -1.235709 -0.280641 5.444195 -11.661596 1.006912 2.819744 53.170066 2.437894 14.176684 13.047117 4.194699 -0.000000 -42.128901 6.051347 -1.349337 2.439760 13.088704 7.707930 -39.789750 2.499424 -1.230337 24.006656 -1.236835 -5.626004 -0.869367 -1.508000 0.000000 -24.836600 5.481200 0.848965 -0.570575 1.582426 -4.585437 -5.621622 -4.242842 0.519269 -1.630383 8.713139 1.142160 -3.158411 -2.944821 -2.370232 -2.983494 1.808419 4.780996 2.655602 1.623064 11.287973 2.888397 -69.833907 3.550248 15.054981 -2.935490 -42.577685 0.628354 2.438798 2.537661 0.276645 -0.888944 -0.349447 4.589639 -0.781912 3.774475 -1.254220 -1.752331 -0.715137 0.387414 13.112508 -2.927465 -1.188320 62.499579 15.374372 3.618527 1.334110 46.173143 -2.638940 -0.323800 6.708182 3.682612 3.802300 0.300081 3.250286 1.032138 1.333028 -0.889550 1.716452 -1.696787 2.365207 
-7.179985 16.789588 0.179195 -112.805456 88.064324 -96.889385 -14.048258 2.160077 -1.247134 -0.395463 5.413503 -13.190581 1.079828 2.928078 55.266006 2.643826 16.006867 11.992693 4.613600 0.000000 -39.426700 6.018778 -1.397134 2.390137 13.411497 7.564953 -38.922150 2.554047 -1.169019 23.702340 -1.264111 -5.648702 -1.429692 -1.439500 -0.000000 -24.488700 3.088739 -5.151537 -4.852376 -1.818440 0.404576 -6.258844 -8.986770 2.960653 -1.953803 9.010146 -3.002764 -4.507514 -3.971420 1.098263 0.004888 1.132462 1.756524 -1.373388 -3.272348 7.575262 3.477106 -65.640797 -5.144000 9.738127 -1.656587 -45.347582 -0.622502 10.762535 4.486205 1.971089 -2.862272 0.546990 1.809510 -3.242823 2.597820 -2.572779 1.909375 -2.220150 -1.776672 17.376458 1.744198 -0.043550 63.745502 7.974573 2.916460 5.062859 54.588507 4.855454 0.157424 3.858045 2.751233 0.752424 3.445298 -0.026249 2.604277 -2.049059 0.392538 0.333641 0.872295 2.108329 
-7.031371 16.826622 0.212952 -114.316043 87.988227 -98.435605 -14.068709 2.012802 -1.253112 -0.560465 5.323076 -14.687394 1.145432 3.033723 57.174317 2.822117 17.562268 10.836510 4.869000 -0.000000 -37.248800 5.996939 -1.440808 2.331976 13.699454 7.390639 -37.995811 2.609810 -1.098861 23.266836 -1.281782 -5.654575 -1.866184 -1.382100 0.000001 -24.264300 5.026147 1.507744 1.016793 3.704109 -1.973461 -1.350360 -7.680282 -1.967894 -0.981614 10.918858 -3.681838 -9.283562 -1.799457 0.130973 -1.115708 1.759449 0.144790 -3.316487 1.596148 9.089196 3.947580 -63.022596 -3.855741 10.469819 -7.390914 -40.179465 2.097777 0.079188 5.874227 2.013086 0.883171 -3.715492 -3.598073 2.013956 -0.634352 -0.532850 -0.202951 2.464801 0.362155 18.501133 2.084573 1.453553 60.383423 16.526330 6.126596 3.065685 56.868800 1.395738 -1.550505 6.256298 0.046154 0.007655 2.653334 0.412092 2.382260 4.058970 -2.478058 1.265901 1.110632 0.500970 
-6.885103 16.865387 0.246397 -115.567147 87.932121 -99.731415 -14.072628 1.870103 -1.253374 -0.765741 5.184552 -16.143383 1.203602 3.132846 58.875835 2.964502 18.781294 9.639160 4.957900 -0.000001 -35.603500 5.986299 -1.480884 2.267669 13.951443 7.193186 -37.014368 2.665948 -1.020984 22.714057 -1.290685 -5.644670 -2.196718 -1.334600 -0.000000 -24.123600 0.188588 -3.197915 -0.178919 0.420358 -3.161071 -0.709978 -7.852539 -2.349453 4.412093 9.797288 -6.007382 -5.956472 -4.849277 -0.598510 -0.418254 1.189609 -0.727422 -0.262706 -2.508053 14.190135 0.652479 -66.092999 -0.439944 10.563748 -2.542159 -34.232975 0.513764 -2.943454 6.982242 -2.348468 0.493676 -1.002969 2.184666 -2.338586 1.261498 0.669170 5.264417 1.078367 0.985765 12.415826 -3.586177 -0.181134 66.848073 11.052702 5.590899 5.126439 42.527531 1.270767 0.368185 1.357296 1.018001 -1.393289 1.456351 1.380981 -2.157425 2.400706 -2.767044 -0.077533 -1.846024 1.006464 
-6.740818 16.905440 0.279855 -116.560344 87.899659 -100.777302 -14.057906 1.733513 -1.248740 -1.007940 5.007804 -17.551851 1.253041 3.222252 60.355965 3.064521 19.627699 8.445410 4.892499 -0.000000 -34.415400 5.989255 -1.515949 2.198126 14.162140 6.977057 -35.984320 2.721309 -0.936615 22.061992 -1.291470 -5.615987 -2.446739 -1.293600 0.000000 -24.018600 -3.215039 -0.713858 1.393158 1.721773 -1.992019 -3.045421 -10.696309 1.749748 0.209025 10.898471 0.647239 -10.135718 -2.253668 -2.571096 -0.042166 -1.906701 -0.518827 2.888191 -1.478494 1.372831 -0.639050 -66.284939 0.966054 14.158110 -4.439661 -41.747176 4.366307 2.153712 1.736287 2.849749 -2.015629 0.562668 -0.755223 -3.678813 -1.432704 -0.827317 -1.091720 1.486329 -1.558322 16.494826 -0.339801 -0.092396 68.629096 9.853514 9.421882 -2.196317 47.319258 -4.832285 0.462183 4.933682 -1.855531 3.571872 0.397713 -0.205921 1.630179 0.850212 1.543505 0.897682 4.288367 1.854456 
-6.598102 16.946218 0.313558 -117.315603 87.889804 -101.590578 -14.024813 1.603503 -1.237958 -1.278594 4.801708 -18.912123 1.292413 3.298972 61.606060 3.118904 20.092081 7.296501 4.699400 0.000000 -33.667300 6.005184 -1.546258 2.127590 14.331579 6.753388 -34.912126 2.775319 -0.845742 21.321197 -1.286240 -5.572981 -2.639064 -1.257200 -0.000000 -23.908400 2.808771 -1.088162 0.946293 -3.916802 0.701156 -3.392930 -8.008091 -1.757275 1.187437 12.042266 -2.698014 -7.581155 -2.342377 -0.115556 -1.578452 2.373222 0.449337 0.205303 -0.604290 8.637269 0.727743 -69.068618 -1.864278 11.423994 0.575347 -37.965218 -5.635010 -1.409136 6.332595 -0.209896 0.027945 4.445256 -1.684860 0.653523 -2.362505 0.427621 -2.131675 3.829409 1.584277 22.176656 -0.239996 -4.645240 68.386496 7.711800 2.789393 3.837676 47.024739 -2.142121 -3.065448 6.277499 0.880217 0.694716 -2.115793 0.708426 0.168236 -0.259896 -1.962187 -2.193552 -4.358722 -0.848433 
-6.456587 16.987268 0.347946 -117.873389 87.909092 -102.211534 -13.971087 1.481792 -1.220647 -1.581803 4.573816 -20.219727 1.319701 3.360659 62.618094 3.128252 20.196547 6.222540 4.414200 0.000000 -33.298001 6.037370 -1.569874 2.056900 14.453214 6.520484 -33.807416 2.826704 -0.749615 20.512802 -1.274946 -5.507553 -2.800665 -1.220800 -0.000000 -23.748301 4.133844 -4.017619 -3.809935 0.979724 0.301992 -2.435572 -7.567643 -3.410801 0.223101 7.444656 -1.818009 -1.649042 -3.577397 -2.322132 -0.736872 -0.836390 -0.322739 -2.417370 -3.858808 8.926252 2.789058 -63.820544 -3.697783 10.404673 -1.942414 -34.299515 1.458637 -4.270267 4.735350 -0.087212 3.706004 -0.643496 2.790139 0.959820 3.804232 -0.635245 0.431343 2.481804 -4.696072 17.244952 -2.726893 -0.221810 68.743005 5.357537 -3.817642 1.291789 39.351135 3.004741 0.174255 6.591127 -2.022808 1.478960 -2.754570 3.437742 -2.107734 -1.507249 -1.695691 0.069010 -0.842774 -2.337530 
-6.316090 17.028005 0.383081 -118.320816 87.952833 -102.718727 -13.897997 1.367176 -1.196796 -1.910399 4.323794 -21.482686 1.333103 3.407467 63.397915 3.094861 19.973405 5.212982 4.061601 0.000000 -33.131100 6.083587 -1.586014 1.989043 14.528674 6.292788 -32.677686 2.874705 -0.646955 19.637246 -1.260887 -5.432566 -2.944015 -1.185000 0.000000 -23.534000 2.229891 -6.137615 -1.580268 0.467265 -0.782141 -3.231076 -8.861683 -3.710706 0.775367 8.264811 -7.424475 -8.111034 -1.197093 -2.815889 4.329326 2.184629 -3.002038 -0.518211 -3.113706 1.126100 0.255416 -66.539121 1.887369 15.914146 -2.423696 -40.945001 0.940052 -1.655543 11.313476 -1.703992 -3.889765 4.506825 -1.760694 -0.149537 0.970149 -1.485579 -0.510872 0.632514 -4.050786 16.430009 -3.936554 2.556902 70.321022 10.438746 10.985163 3.674859 36.189430 -0.289222 -0.670317 9.652782 -1.117224 -3.592840 -3.668247 0.260207 -4.047915 2.465965 -0.603200 3.459944 -0.689525 -2.734644 
-6.176215 17.068113 0.419194 -118.685364 88.028167 -103.142050 -13.804235 1.260715 -1.165879 -2.272342 4.059960 -22.695873 1.331181 3.437823 63.941447 3.026972 19.494411 4.285820 3.681000 -0.000000 -33.126100 6.146832 -1.593759 1.923686 14.553728 6.060992 -31.533459 2.918393 -0.539751 18.717215 -1.242328 -5.333986 -3.086451 -1.145600 0.000000 -23.237200 4.603191 -0.549020 1.788256 1.794366 -3.318133 -4.500956 -2.298740 1.687359 1.792758 7.229153 1.633417 -8.214765 -8.186423 -0.199359 -0.083749 -1.126379 1.572382 -0.016972 -4.362431 6.355853 -1.516639 -61.235437 4.713041 9.838678 -2.378695 -37.268168 -3.703629 -1.132568 7.885701 0.057920 0.132824 1.648269 2.696015 -2.064070 0.352817 0.521675 -2.300111 -3.115845 -2.821175 10.936392 0.811384 0.978885 64.130434 7.342916 7.897532 7.553275 42.987970 4.993342 2.002980 9.266458 1.496784 -0.059918 -1.843496 1.049681 0.758679 2.564333 -2.420806 0.756654 2.711932 1.708426 
-6.036806 17.107229 0.456146 -119.018137 88.130521 -103.528869 -13.692329 1.160685 -1.127878 -2.661636 3.784529 -23.863558 1.313208 3.452438 64.257914 2.933343 18.830650 3.421174 3.293801 0.000000 -33.139800 6.224120 -1.593990 1.862787 14.533760 5.832799 -30.379673 2.957386 -0.427673 17.754570 -1.220920 -5.219914 -3.228731 -1.104100 0.000000 -22.872200 -0.284333 -3.910452 9.453357 -0.033463 -0.863842 -4.419291 -4.402275 -0.671918 -1.209604 7.504508 -2.111740 -2.849100 -3.311589 2.117292 1.433390 -1.003660 5.410796 -2.196730 -2.477434 2.427552 -0.434920 -63.312022 2.584785 12.129131 0.114019 -33.454351 -0.246129 -2.547769 2.889628 -0.099580 -2.306539 -1.707339 1.069372 2.079715 -1.363645 1.367698 1.098126 2.066037 1.306275 18.144634 3.047555 -0.011814 64.557989 10.115711 4.482489 -3.561042 36.827810 -5.676024 2.025650 7.671736 -1.591868 -0.106332 -0.495744 -1.873489 0.037793 -1.681213 1.351853 -0.274264 2.296026 1.485062 
